<?xml version="1.0" encoding="utf-8"?>
<!-- Generator: Adobe Illustrator 16.0.0, SVG Export Plug-In . SVG Version: 6.00 Build 0)  -->
<!DOCTYPE svg PUBLIC "-//W3C//DTD SVG 1.1//EN" "http://www.w3.org/Graphics/SVG/1.1/DTD/svg11.dtd">
<svg version="1.1" id="Layer_1" xmlns="http://www.w3.org/2000/svg" xmlns:xlink="http://www.w3.org/1999/xlink" x="0px" y="0px"
	 width="38.2px" height="39.5px" viewBox="0 0 38.2 39.5" style="enable-background:new 0 0 38.2 39.5;" xml:space="preserve">
<style type="text/css">
<![CDATA[
	.st0{fill:#BABABA;}
]]>
</style>
<g>
	<path class="st0" d="M35.5,28.9c-3.2,5.5-9,9.1-15.8,9.1C9.7,38,1.5,29.8,1.5,19.8S9.7,1.5,19.8,1.5c7.5,0,14,4.6,16.8,11.1
		c0.5,0,1.1,0,1.6,0C35.3,5.3,28.1,0,19.8,0C8.9,0,0,8.9,0,19.8s8.9,19.8,19.8,19.8c7.6,0,14.2-4.3,17.5-10.6
		C36.7,28.9,36.1,28.9,35.5,28.9z"/>
</g>
</svg>
